<svg xmlns="http://www.w3.org/2000/svg" viewBox="0 0 48 48" width="96px" height="96px">
  <circle fill="#1282B9" cx="24" cy="24" r="22"/>
  <path fill="#FFFFFF" d="M24 13c-6.075 0-11 4.925-11 11s4.925 11 11 11 11-4.925 11-11-4.925-11-11-11zm0 20.055c-6.073 0-11.055-4.982-11.055-11.055 0-6.073 4.982-11.055 11.055-11.055 6.073 0 11.055 4.982 11.055 11.055 0 6.073-4.982 11.055-11.055 11.055zm0-2.937a8.116 8.116 0 1 1 0-16.232 8.116 8.116 0 0 1 0 16.232zm0-2.937a5.18 5.18 0 1 0 0-10.36 5.18 5.18 0 0 0 0 10.36z"/>
</svg>
